<svg width="28" height="28" viewBox="0 0 28 28" fill="none" xmlns="http://www.w3.org/2000/svg">
<g clip-path="url(#clip0_142_80)">
<path d="M5.83334 17.5H4.66668C4.04784 17.5 3.45435 17.2542 3.01676 16.8166C2.57918 16.379 2.33334 15.7855 2.33334 15.1667V4.66667C2.33334 4.04783 2.57918 3.45434 3.01676 3.01675C3.45435 2.57917 4.04784 2.33334 4.66668 2.33334H15.1667C15.7855 2.33334 16.379 2.57917 16.8166 3.01675C17.2542 3.45434 17.5 4.04783 17.5 4.66667V5.83334M12.8333 10.5H23.3333C24.622 10.5 25.6667 11.5447 25.6667 12.8333V23.3333C25.6667 24.622 24.622 25.6667 23.3333 25.6667H12.8333C11.5447 25.6667 10.5 24.622 10.5 23.3333V12.8333C10.5 11.5447 11.5447 10.5 12.8333 10.5Z" stroke="#2667FF" stroke-width="4" stroke-linecap="round" stroke-linejoin="round"/>
</g>
<defs>
<clipPath id="clip0_142_80">
<rect width="28" height="28" fill="white"/>
</clipPath>
</defs>
</svg>
